<svg width="316" height="83" viewBox="0 0 316 83" fill="none" xmlns="http://www.w3.org/2000/svg">
<path fill-rule="evenodd" clip-rule="evenodd" d="M13.6779 41.1695C13.6753 46.1619 12.4287 50.2056 10.8919 50.2056C9.35433 50.2056 8.10687 46.1586 8.10434 41.172C8.10687 36.1795 9.3518 32.1342 10.8903 32.1342C12.4287 32.135 13.6804 36.1803 13.6779 41.1695Z" fill="#2C2C2C"/>
<path fill-rule="evenodd" clip-rule="evenodd" d="M48.2357 11.353C60.9507 16.6047 69.7681 28.0729 69.7681 41.3691C69.7714 54.6679 60.9507 66.1344 48.2298 71.3836C55.518 65.1101 60.3594 54.0093 60.3594 41.37C60.3594 28.7306 55.5146 17.6307 48.2357 11.353Z" fill="#2C2C2C"/>
<path fill-rule="evenodd" clip-rule="evenodd" d="M39.6232 8.06098C45.583 8.06098 50.4219 23.0393 50.4219 41.4983C50.4219 59.9683 45.5839 74.9373 39.619 74.939C36.6745 74.9373 34.0016 71.2754 32.0541 65.3433C30.406 69.3333 28.3311 71.7175 26.0791 71.7175C20.7089 71.7192 16.3525 58.2392 16.3567 41.6141C16.3525 24.9898 20.7055 11.5073 26.074 11.514C28.31 11.514 30.3697 13.8605 32.0128 17.7926C33.9653 11.7842 36.6526 8.06433 39.6232 8.06098ZM17.7981 41.6158C17.7939 50.9455 20.1294 58.5144 23.0056 58.5144C25.8834 58.5144 28.2147 50.9447 28.2147 41.6191C28.2147 32.2843 25.8834 24.718 23.0056 24.7146C20.126 24.7171 17.7948 32.2826 17.7981 41.6158ZM32.502 19.0409C34.522 24.5578 35.7973 32.6241 35.7973 41.6149C35.7982 50.5269 34.5456 58.5328 32.5576 64.0446C33.5276 65.3525 34.5971 66.0782 35.7189 66.0782C40.1065 66.0749 43.6591 55.0739 43.6591 41.4983C43.6591 27.9294 40.1065 16.9235 35.7248 16.9235C34.576 16.926 33.4854 17.6844 32.502 19.0409Z" fill="#2C2C2C"/>
<path d="M93.5321 26.4432V26.4241C97.7664 26.4241 101.771 27.9297 104.798 30.9407C110.316 36.4293 110.316 47.1206 104.798 52.5906C101.771 55.5826 97.7661 57.0882 93.5321 57.0882H85.9064V26.4439L93.5321 26.4432ZM93.5512 50.9319H93.5704C96.0995 50.9319 98.437 50.2267 100.238 48.4353C102.039 46.6439 102.748 44.2808 102.748 41.7461C102.748 39.2305 102.039 36.8674 100.219 35.0569C98.418 33.2464 96.0421 32.5413 93.513 32.5413H92.0951V50.9322L93.5512 50.9319ZM111.236 26.3671H129.764V32.5036H117.425V38.6592H126.68V44.7958H117.425V50.9323H129.764V57.0879H117.425H111.236L111.236 26.3671ZM132.638 57.0875L132.619 26.329H142.658C145.628 26.329 148.56 27.3581 150.686 29.4735C152.813 31.589 153.675 33.5709 153.675 36.5249V37.4777C153.675 39.7647 153.024 41.4417 151.721 43.2712C150.418 45.1008 149.326 45.6344 147.295 46.3967L154.269 57.0879H146.72L138.826 45.0813V57.0879L132.638 57.0875ZM138.808 41.1174L143.233 41.1365C144.517 41.1365 145.169 40.8125 146.069 39.9168C146.97 39.0211 147.295 37.9919 147.295 36.7151C147.295 35.4572 146.97 34.6188 146.069 33.704C145.169 32.7893 143.559 32.4653 142.275 32.4653H138.807L138.808 41.1174ZM157.144 25.7953L172.204 46.3396L187.264 25.7953V57.0875H181.076V44.4145L172.204 56.5918L163.333 44.4145V57.0875H157.145L157.144 25.7953ZM200.829 46.9299H206.29L203.569 40.5456L200.829 46.9299ZM198.3 52.3611L198.261 52.3421C197.572 53.9048 196.863 55.4485 196.154 57.0112H189.505L203.511 25.7951L217.555 57.0112H210.887C210.197 55.4676 209.508 53.9048 208.818 52.3612H198.299L198.3 52.3611ZM219.912 26.3671H226.101V50.9324H238.44V57.088H219.912L219.912 26.3671ZM240.739 26.3671H259.267V32.5036H246.928V38.6592H256.183V44.7958H246.928V50.9323H259.267V57.0879H246.928H240.74L240.739 26.3671ZM262.141 57.0875L262.122 26.329H272.162C275.131 26.329 278.063 27.3581 280.19 29.4735C282.317 31.589 283.179 33.5709 283.179 36.5249V37.4777C283.179 39.7647 282.527 41.4417 281.224 43.2712C279.921 45.1008 278.829 45.6344 276.798 46.3967L283.773 57.0879H276.224L268.33 45.0813V57.0879L262.141 57.0875ZM268.311 41.1174L272.737 41.1365C274.021 41.1365 274.672 40.8125 275.572 39.9168C276.473 39.0211 276.799 37.9919 276.799 36.7151C276.799 35.4572 276.473 34.6188 275.572 33.704C274.672 32.7893 273.062 32.4653 271.779 32.4653H268.311L268.311 41.1174ZM293.985 26.3671H300.174H307.896V32.5036H300.174V57.0876H293.985V32.5036H286.264V26.3671H293.985Z" fill="#2C2C2C"/>
</svg>
