<svg width="348" height="79" viewBox="0 0 348 79" fill="none" xmlns="http://www.w3.org/2000/svg">
<path fill-rule="evenodd" clip-rule="evenodd" d="M6.46984 39.1163C6.46691 44.9116 5.01982 49.6055 3.23594 49.6055C1.45107 49.6055 0.00300576 44.9077 6.8512e-05 39.1192C0.00300576 33.3239 1.44813 28.6281 3.23398 28.6281C5.01982 28.629 6.47278 33.3249 6.46984 39.1163Z" fill="#FF765E"/>
<path fill-rule="evenodd" clip-rule="evenodd" d="M46.5848 4.50507C61.3445 10.6013 71.5798 23.9137 71.5798 39.3481C71.5837 54.7854 61.3445 68.0958 46.578 74.1891C55.0382 66.9068 60.6582 54.0209 60.6582 39.349C60.6582 24.6772 55.0343 11.7923 46.5848 4.50507Z" fill="#FF765E"/>
<path fill-rule="evenodd" clip-rule="evenodd" d="M36.5875 0.683716C43.5057 0.683716 49.1227 18.0707 49.1227 39.498C49.1227 60.9381 43.5067 78.3143 36.5826 78.3163C33.1646 78.3143 30.0619 74.0635 27.8012 67.1775C25.8881 71.8091 23.4795 74.5767 20.8654 74.5767C14.6316 74.5787 9.57463 58.931 9.57952 39.6324C9.57463 20.3348 14.6277 4.68425 20.8595 4.69204C23.4551 4.69204 25.846 7.41587 27.7532 11.9803C30.0198 5.00562 33.1392 0.687611 36.5875 0.683716ZM11.2528 39.6344C11.2479 50.4645 13.9589 59.2504 17.2976 59.2504C20.6382 59.2504 23.3444 50.4635 23.3444 39.6383C23.3444 28.8024 20.6382 20.0193 17.2976 20.0154C13.955 20.0183 11.2489 28.8004 11.2528 39.6344ZM28.3211 13.4293C30.666 19.8333 32.1464 29.1968 32.1464 39.6334C32.1474 49.9785 30.6934 59.2719 28.3857 65.67C29.5117 67.1882 30.7531 68.0306 32.0553 68.0306C37.1485 68.0267 41.2724 55.2567 41.2724 39.498C41.2724 23.7472 37.1485 10.9714 32.0622 10.9714C30.7287 10.9743 29.4627 11.8546 28.3211 13.4293Z" fill="#FF765E"/>
<path d="M99.1652 22.0219V21.9998C104.081 21.9998 108.729 23.7474 112.243 27.2427C118.648 33.6139 118.648 46.0244 112.243 52.374C108.729 55.8472 104.08 57.5949 99.1652 57.5949H90.3132V22.0227L99.1652 22.0219ZM99.1874 50.4485H99.2096C102.145 50.4485 104.859 49.63 106.95 47.5505C109.04 45.4711 109.863 42.7279 109.863 39.7856C109.863 36.8655 109.04 34.1224 106.927 32.0207C104.837 29.9191 102.079 29.1006 99.143 29.1006H97.4972V50.4489L99.1874 50.4485ZM119.716 21.9335H141.224V29.0569H126.9V36.2024H137.643V43.3257H126.9V50.4491H141.224V57.5946H126.9H119.717L119.716 21.9335ZM144.56 57.594L144.537 21.8894H156.191C159.639 21.8894 163.042 23.084 165.51 25.5396C167.979 27.9952 168.98 30.2958 168.98 33.7248V34.8309C168.98 37.4856 168.224 39.4323 166.711 41.556C165.199 43.6798 163.931 44.2992 161.574 45.184L169.67 57.5945H160.907L151.743 43.6572V57.5945L144.56 57.594ZM151.721 39.0559L156.859 39.078C158.349 39.078 159.105 38.7019 160.151 37.6622C161.196 36.6224 161.574 35.4278 161.574 33.9456C161.574 32.4855 161.196 31.5122 160.151 30.4503C159.105 29.3885 157.237 29.0124 155.747 29.0124H151.721L151.721 39.0559ZM173.006 21.2698L190.488 45.1178L207.97 21.2698V57.594H200.786V42.8831L190.489 57.0186L180.191 42.8831V57.594H173.007L173.006 21.2698ZM223.717 45.8031H230.055L226.897 38.3921L223.717 45.8031ZM220.78 52.1077L220.736 52.0855C219.935 53.8996 219.112 55.6915 218.289 57.5055H210.572L226.83 21.2696L243.132 57.5055H235.392C234.591 55.7137 233.791 53.8996 232.99 52.1077H220.779L220.78 52.1077ZM245.868 21.9335H253.052V50.4492H267.376V57.5947H245.868L245.868 21.9335ZM270.045 21.9335H291.552V29.0569H277.229V36.2024H287.972V43.3257H277.229V50.4491H291.552V57.5946H277.229H270.045L270.045 21.9335ZM294.888 57.594L294.866 21.8894H306.52C309.967 21.8894 313.37 23.084 315.839 25.5396C318.308 27.9952 319.309 30.2958 319.309 33.7248V34.8309C319.309 37.4856 318.552 39.4323 317.04 41.556C315.528 43.6798 314.26 44.2992 311.902 45.184L319.998 57.5945H311.235L302.072 43.6572V57.5945L294.888 57.594ZM302.05 39.0559L307.187 39.078C308.678 39.078 309.434 38.7019 310.479 37.6622C311.524 36.6224 311.903 35.4278 311.903 33.9456C311.903 32.4855 311.525 31.5122 310.479 30.4503C309.434 29.3885 307.566 29.0124 306.075 29.0124H302.05L302.05 39.0559ZM331.853 21.9335H339.037H348V29.0569H339.037V57.5941H331.853V29.0569H322.89V21.9335H331.853Z" fill="#273161"/>
</svg>
